<svg id="Layer_1_1_" style="enable-background:new 0 0 64 64;" version="1.1" viewBox="0 0 64 64" xml:space="preserve" xmlns="http://www.w3.org/2000/svg" xmlns:xlink="http://www.w3.org/1999/xlink" height="64" width="64"><g><g><polygon points="52,52 52,56 26,56 16,56 16,52   " style="fill:#FF826E;"></polygon><polygon points="56,48 56,56 54,56 52,56 52,52 52,48 54,48   " style="fill:#FCD770;"></polygon><polygon points="52,48 52,52 16,52 16,48 26,48   " style="fill:#FCD770;"></polygon><path d="M60.83,49.17C61.55,49.9,62,50.9,62,52c0,2.21-1.79,4-4,4h-2v-8h2C59.1,48,60.1,48.45,60.83,49.17z    " style="fill:#E6E9ED;"></path><path d="M16,52v4l-5.11-2.55C10.35,53.17,10,52.61,10,52s0.35-1.17,0.89-1.45L16,48V52z" style="fill:#969FAA;"></path><path d="M2,40V4c0-1.1,0.9-2,2-2h14v10h14V2h14c1.1,0,2,0.9,2,2v18H26v20H4C2.9,42,2,41.1,2,40z" style="fill:#DFB28B;"></path><polygon points="54,56 54,62 26,62 26,56 52,56   " style="fill:#E6E9ED;"></polygon><polygon points="48,22 26,22 26,42 26,48 52,48 54,48 54,42 54,22   " style="fill:#E6E9ED;"></polygon><rect height="10" style="fill:#E6E9ED;" width="14" x="18" y="2"></rect></g><g><path d="M58,47h-3V21h-6V4c0-1.654-1.346-3-3-3H4C2.346,1,1,2.346,1,4v36c0,1.654,1.346,3,3,3h21v4h-9.236l-5.316,2.658    C9.555,50.104,9,51.002,9,52s0.555,1.896,1.447,2.342L15.764,57H25v6h30v-6h3c2.757,0,5-2.243,5-5S60.757,47,58,47z M51,51H17v-2    h34V51z M17,53h34v2H17V53z M53,49h2v6h-2V49z M19,3h12v8H19V3z M4,41c-0.552,0-1-0.449-1-1V4c0-0.551,0.448-1,1-1h13v10h16V3h13    c0.552,0,1,0.449,1,1v17H25v20H4z M27,23h26v24H27V23z M11,52c0-0.236,0.131-0.447,0.342-0.553L15,49.618v4.764l-3.658-1.829    C11.131,52.447,11,52.236,11,52z M53,61H27v-4h26V61z M58,55h-1v-6h1c1.654,0,3,1.346,3,3S59.654,55,58,55z"></path><rect height="2" width="22" x="29" y="25"></rect><rect height="2" width="2" x="29" y="29"></rect><rect height="2" width="18" x="33" y="29"></rect><rect height="2" width="22" x="29" y="33"></rect><rect height="2" width="22" x="29" y="37"></rect><rect height="2" width="2" x="49" y="41"></rect><rect height="2" width="18" x="29" y="41"></rect><rect height="2" width="8" x="5" y="37"></rect><rect height="2" width="2" x="15" y="37"></rect><rect height="2" width="12" x="5" y="33"></rect></g></g></svg>