<?xml version="1.0" ?><svg id="Layer_5" style="enable-background:new 0 0 64 64;" version="1.1" viewBox="0 0 64 64" xml:space="preserve" xmlns="http://www.w3.org/2000/svg" xmlns:xlink="http://www.w3.org/1999/xlink"><g><g><polygon points="22,2 22,17.03 22.01,17.04 22,54 62,54 62,2   " style="fill:#FFEAA7;"/><path d="M17.41,50H18l1.78,1.78l-6.93,8.07C11.67,61.22,9.97,62,8.17,62c-1.71,0-3.25-0.69-4.36-1.81    C2.69,59.08,2,57.54,2,55.83c0-1.8,0.78-3.5,2.15-4.68l8.07-6.93L14,46v0.59c0,0.9,0.36,1.77,1,2.41S16.51,50,17.41,50z M10,56    c0-1.1-0.9-2-2-2s-2,0.9-2,2s0.9,2,2,2S10,57.1,10,56z" style="fill:#CF9E76;"/><path d="M16.26,40.74c1.64,2.94,4.06,5.36,7,7L22,49.21l-2.22,2.57L18,50h-0.59c-0.9,0-1.77-0.36-2.41-1    s-1-1.51-1-2.41V46l-1.78-1.78L16.26,40.74z" style="fill:#CCD1D9;"/><circle cx="32" cy="32" r="18" style="fill:#AAB2BD;"/><path d="M38.57,27.43L36,30h-6l-6,4h-5.86C18.05,33.35,18,32.68,18,32c0-7.73,6.27-14,14-14    c0.68,0,1.35,0.07,2.01,0.16C34.05,21.92,35.83,25.26,38.57,27.43z" style="fill:#69D6F4;"/><path d="M24,34v9.48c-3.11-2.16-5.3-5.56-5.86-9.48H24z" style="fill:#B4DD7F;"/><path d="M30,30v15.86c-2.21-0.32-4.25-1.15-6-2.37v-0.01V34L30,30z" style="fill:#B4DD7F;"/><path d="M45.84,29.99C45.93,30.65,46,31.32,46,32c0,3.81-1.53,7.26-4,9.79V29.32    C43.2,29.74,44.49,29.98,45.84,29.99z" style="fill:#B4DD7F;"/><path d="M36,30v15.42C34.73,45.8,33.39,46,32,46c-0.68,0-1.35-0.05-2-0.14V30H36z" style="fill:#B4DD7F;"/><path d="M42,29.32v12.47v0.01c-1.64,1.67-3.69,2.93-6,3.62V30l2.57-2.57C39.6,28.23,40.75,28.88,42,29.32z" style="fill:#B4DD7F;"/><path d="M38.57,27.43c-2.74-2.17-4.52-5.51-4.56-9.27C34,18.11,34,18.05,34,18c0-1.33,0.21-2.6,0.61-3.79    h0.01C36.2,9.44,40.69,6,46,6c6.63,0,12,5.37,12,12c0,5.31-3.44,9.8-8.21,11.38v0.01C48.6,29.79,47.33,30,46,30    c-0.05,0-0.11,0-0.16-0.01c-1.35-0.01-2.64-0.25-3.84-0.67C40.75,28.88,39.6,28.23,38.57,27.43z" style="fill:#FCD770;"/></g><g><path d="M46,13c1.103,0,2,0.897,2,2h2c0-1.859-1.279-3.411-3-3.858V9h-2v2h-3v4c0,2.206,1.794,4,4,4c1.103,0,2,0.897,2,2v2h-2    c-1.103,0-2-0.897-2-2h-2c0,1.859,1.279,3.411,3,3.858V27h2v-2h3v-4c0-2.206-1.794-4-4-4c-1.103,0-2-0.897-2-2v-2H46z"/><path d="M8,53c-1.654,0-3,1.346-3,3s1.346,3,3,3s3-1.346,3-3S9.654,53,8,53z M8,57c-0.552,0-1-0.448-1-1s0.448-1,1-1s1,0.448,1,1    S8.552,57,8,57z"/><path d="M21,1v15.537c-4.833,3.448-8,9.087-8,15.463c0,3.051,0.74,5.926,2.024,8.483l-11.53,9.913C1.909,51.76,1,53.741,1,55.831    C1,59.784,4.216,63,8.169,63c2.09,0,4.071-0.909,5.435-2.494L21,51.903V55h42V1H21z M32,15c0.427,0,0.871,0.024,1.346,0.067    c-0.149,0.643-0.248,1.302-0.298,1.977C32.684,17.015,32.338,17,32,17c-8.271,0-15,6.729-15,15s6.729,15,15,15s15-6.729,15-15    c0-0.338-0.015-0.684-0.045-1.048c0.675-0.049,1.335-0.149,1.977-0.298C48.976,31.129,49,31.573,49,32c0,9.374-7.626,17-17,17    s-17-7.626-17-17S22.626,15,32,15z M46,29c-0.002,0-0.005,0-0.007,0v-0.001l-0.014,0c-6.019-0.011-10.914-4.882-10.974-10.889    L35,17.993C35.004,11.931,39.937,7,46,7c6.065,0,11,4.935,11,11S52.065,29,46,29z M45,32c0,2.535-0.74,4.894-2,6.896v-8.26    c0.632,0.15,1.279,0.256,1.943,0.31C44.978,31.317,45,31.669,45,32z M19,32c0-7.168,5.832-13,13-13    c0.331,0,0.683,0.022,1.054,0.057c0.268,3.308,1.779,6.264,4.065,8.41L35.586,29h-5.889l-6,4h-4.647    C19.025,32.669,19,32.338,19,32z M23,35v6.359c-1.768-1.701-3.051-3.894-3.637-6.359H23z M25,34.535l4-2.667v12.768    c-1.441-0.342-2.788-0.921-4-1.7V34.535z M31,31h4v13.637C34.035,44.866,33.034,45,32,45c-0.338,0-0.669-0.025-1-0.051V31z     M37,30.414l1.68-1.68c0.725,0.496,1.501,0.92,2.32,1.263v11.362c-1.152,1.109-2.503,2.012-4,2.638V30.414z M21.745,47.97    l-2.016,2.345L18.414,49h-1c-0.645,0-1.251-0.251-1.707-0.707S15,47.23,15,46.586v-1l-1.315-1.315l2.345-2.016    C17.506,44.545,19.455,46.494,21.745,47.97z M12.088,59.201C11.104,60.345,9.676,61,8.169,61C5.318,61,3,58.682,3,55.831    c0-1.507,0.655-2.936,1.799-3.919l7.366-6.333L13,46.414v0.172c0,1.179,0.459,2.287,1.293,3.121S16.235,51,17.414,51h0.172    l0.835,0.835L12.088,59.201z M61,53H23v-3.423l0.517-0.601C26.074,50.26,28.949,51,32,51c10.477,0,19-8.523,19-19    c0-0.618-0.039-1.256-0.118-1.96C55.636,28.105,59,23.441,59,18c0-7.168-5.832-13-13-13c-5.441,0-10.105,3.364-12.04,8.118    C33.256,13.039,32.618,13,32,13c-3.255,0-6.319,0.825-9,2.273V3h38V53z"/><rect height="2" width="2" x="33" y="5"/><polygon points="27,7 31,7 31,5 25,5 25,9 27,9   "/><polygon points="57,49 53,49 53,51 59,51 59,39 57,39   "/><rect height="2" width="2" x="57" y="35"/><rect height="2" width="2" x="57" y="31"/><rect height="2" width="2" x="53" y="17"/><rect height="2" width="2" x="37" y="17"/></g></g></svg>