<?xml version="1.0" encoding="UTF-8"?>
<svg version="1.1" xmlns="http://www.w3.org/2000/svg" width="512" height="512">
<path d="M0 0 C6.38832145 3.79879153 10.5664497 8.85762994 12.48046875 16.08984375 C12.67104267 18.9701303 12.76604508 21.75323742 12.75894165 24.63192749 C12.76473405 25.47826583 12.77052645 26.32460416 12.77649438 27.19658911 C12.79346289 30.02481578 12.79636818 32.85287894 12.79931641 35.68115234 C12.80861675 37.71157225 12.81878558 39.74198834 12.82975769 41.7723999 C12.85705971 47.28012531 12.87220776 52.78782513 12.88518572 58.29560041 C12.90081531 64.05318607 12.9276061 69.81071947 12.95321655 75.56826782 C13.00000732 86.46908309 13.03675003 97.36990819 13.06988943 108.27077258 C13.10810867 120.68183244 13.15751937 133.09283983 13.20787358 145.50385547 C13.31119789 171.03247934 13.40045672 196.56113692 13.48046875 222.08984375 C14.08910767 221.47010178 14.69774658 220.8503598 15.3248291 220.21183777 C21.07839754 214.3578548 26.8440931 208.516146 32.62354279 202.68770885 C35.59401267 199.69120682 38.55967743 196.69026023 41.51464844 193.6784668 C44.3694918 190.76907671 47.23657346 187.87227055 50.11235046 184.98357582 C51.20431641 183.88241065 52.29189127 182.77687213 53.37483215 181.66683006 C60.21331759 174.66418237 65.2992964 169.78771805 75.35546875 168.65234375 C81.19969718 168.92844903 86.9401322 170.88403712 91.37890625 174.73828125 C95.78496116 179.66016698 97.76802563 184.23043364 97.85546875 190.90234375 C97.88382813 191.87816406 97.9121875 192.85398437 97.94140625 193.859375 C96.68465194 202.66730566 91.00472782 208.13563514 84.93579102 214.12036133 C84.07517059 214.98477844 83.21455017 215.84919556 82.32785034 216.73980713 C79.98176066 219.09200734 77.62715361 221.4349769 75.2678616 223.77388978 C72.79320813 226.23087669 70.32920425 228.69850302 67.86375427 231.16471863 C63.72544851 235.30115626 59.5794999 239.4298036 55.4284668 243.5534668 C50.63546569 248.31498078 45.853035 253.08690414 41.07648617 257.86491853 C35.97887296 262.9638843 30.87367114 268.05519977 25.76621127 273.14430022 C24.29952409 274.6067336 22.83425516 276.07057521 21.36929512 277.53473854 C18.63701962 280.26462533 15.89628033 282.98591557 13.15454102 285.70629883 C12.34658585 286.51516037 11.53863068 287.32402191 10.70619202 288.15739441 C9.58126343 289.26952805 9.58126343 289.26952805 8.43360901 290.40412903 C7.78709664 291.04728971 7.14058428 291.69045038 6.47448063 292.35310078 C1.37913435 296.79104166 -3.14075668 298.22241987 -9.76953125 298.40234375 C-10.6615625 298.43972656 -11.55359375 298.47710937 -12.47265625 298.515625 C-21.14290788 297.30401291 -26.64387661 291.54290488 -32.53417969 285.59277344 C-33.39699051 284.73697189 -34.25980133 283.88117035 -35.14875793 282.99943542 C-37.49702599 280.66568808 -39.83602316 278.32338316 -42.17064571 275.9760313 C-44.6251054 273.51138521 -47.08937774 271.05658052 -49.55206299 268.60015869 C-53.68466751 264.47481423 -57.80880618 260.3411474 -61.92822266 256.20263672 C-66.67869226 251.43040156 -71.44339958 246.67274678 -76.21575713 241.92240787 C-80.32611479 237.8302511 -84.42856496 233.7302895 -88.52460694 229.62380338 C-90.96520289 227.17699822 -93.40835682 224.73291167 -95.85869598 222.29586029 C-98.59151294 219.57683264 -101.30766738 216.84152074 -104.02246094 214.10449219 C-104.8277272 213.30732285 -105.63299347 212.5101535 -106.46266174 211.68882751 C-111.65568056 206.41695324 -115.77364419 201.47741468 -117.05078125 193.96484375 C-116.95977853 185.59259306 -115.67680462 180.31887334 -109.76953125 174.27734375 C-103.81544477 170.26978554 -97.82506407 167.90843739 -90.51953125 169.08984375 C-81.74275456 171.45315623 -76.05531685 177.90821826 -69.921875 184.19921875 C-68.83724834 185.29318791 -67.75149978 186.38604577 -66.66468811 187.47784424 C-63.82753627 190.33395263 -61.00573343 193.20475729 -58.18701172 196.07904053 C-55.299924 199.01756697 -52.39836729 201.9417314 -49.49804688 204.8671875 C-43.82439649 210.594225 -38.16690288 216.33689185 -32.51953125 222.08984375 C-32.51806469 221.03647103 -32.51659813 219.98309832 -32.51508713 218.89780521 C-32.47848004 193.25811023 -32.41901447 167.61854576 -32.33562851 141.97895908 C-32.29583185 129.57980192 -32.26344248 117.18070827 -32.24853516 104.78149414 C-32.23552196 93.9733996 -32.20856558 83.16544481 -32.16491818 72.35742897 C-32.14229613 66.63550286 -32.12662103 60.91374916 -32.1276474 55.19177437 C-32.12839355 49.80319303 -32.11046013 44.41499293 -32.07836342 39.02651024 C-32.06986308 37.05170048 -32.06811539 35.07684797 -32.07372856 33.10202789 C-32.08038793 30.39847311 -32.06240186 27.69612447 -32.03851318 24.99269104 C-32.0462736 24.21737126 -32.05403402 23.44205149 -32.0620296 22.64323717 C-31.96123389 16.1671894 -30.26266452 10.00832887 -25.74030852 5.19688612 C-18.45385475 -1.34331915 -9.54058936 -3.44644546 0 0 Z " fill="#000000" transform="translate(265.51953125,64.91015625)"/>
<path d="M0 0 C5.26570175 3.17534756 8.98021086 7.41247228 11.44140625 13.05859375 C11.86450195 15.41772461 11.86450195 15.41772461 12.1171875 18.0234375 C12.21999023 18.98217773 12.32279297 19.94091797 12.42871094 20.92871094 C12.58968262 22.44706543 12.58968262 22.44706543 12.75390625 23.99609375 C14.96643549 42.4836433 21.72678235 57.95365759 36.44140625 70.05859375 C50.90655332 80.2690299 65.49815491 83.20434216 82.86547852 83.21972656 C84.22308993 83.22436176 85.58070006 83.22938735 86.93830872 83.23477173 C90.61227031 83.24783314 94.28621367 83.2543288 97.96019483 83.25878239 C100.26209519 83.26172422 102.5639907 83.26583114 104.8658886 83.27028656 C112.08684341 83.28394715 119.30778698 83.29361993 126.52875382 83.29748845 C134.8287998 83.30196099 143.12868044 83.31947746 151.42867619 83.34848905 C157.86720278 83.37020278 164.30568318 83.38019793 170.74424595 83.38152957 C174.57879989 83.38257101 178.41319811 83.38833577 182.24771309 83.40634918 C185.86180714 83.42299781 189.47563123 83.4249054 193.08975029 83.41621017 C195.02408716 83.41508974 196.95841575 83.42867798 198.8927002 83.44296265 C210.25820363 83.38964308 221.54755658 81.8154396 231.69140625 76.43359375 C232.35978516 76.08731934 233.02816406 75.74104492 233.71679688 75.38427734 C248.99008531 67.13891511 259.06842818 53.3800178 264.12890625 36.99609375 C265.23291892 32.76302861 265.7147903 28.61586971 266.10205078 24.27416992 C266.92188758 15.0832205 268.02171187 9.15489586 275.00390625 2.68359375 C279.65294468 -0.41576521 282.62515776 -1.23554738 288.31640625 -1.25390625 C289.51007813 -1.27066406 290.70375 -1.28742188 291.93359375 -1.3046875 C298.28211141 -0.64721295 302.38630988 2.25650595 306.44140625 7.05859375 C312.68271865 15.83016793 311.28002915 26.90941104 309.74609375 37.08203125 C306.23757439 57.46504405 297.91837297 75.34019467 284.44140625 91.05859375 C283.96316406 91.66960937 283.48492187 92.280625 282.9921875 92.91015625 C269.73171685 109.55223689 248.65917397 119.83654374 228.44140625 125.05859375 C227.76643506 125.23415833 227.09146387 125.40972292 226.39603901 125.59060764 C218.66784493 127.36256551 211.0289917 127.36246612 203.13549805 127.36499023 C201.61146139 127.37262639 200.08742854 127.38105634 198.56340027 127.39021301 C194.44700358 127.41203294 190.33068113 127.42094102 186.21423316 127.42603946 C183.63134195 127.42970066 181.04846964 127.43594999 178.46558571 127.44304085 C169.42227972 127.46750075 160.37903072 127.48057785 151.33569336 127.48413086 C142.96060106 127.48775408 134.5858779 127.51757096 126.2108981 127.55953544 C118.97984241 127.59447269 111.74890753 127.60968338 104.5177682 127.61037689 C100.21737081 127.61116237 95.91734937 127.61955758 91.61704063 127.64837456 C68.58627806 127.79317406 47.22474928 127.20576402 26.44140625 116.05859375 C25.49136719 115.58550781 24.54132813 115.11242187 23.5625 114.625 C16.83933307 111.1745847 11.18408422 106.94372417 5.44140625 102.05859375 C4.77625 101.53910156 4.11109375 101.01960938 3.42578125 100.484375 C-16.91322568 84.07261534 -28.31360244 57.40043065 -31.55859375 32.05859375 C-32.53522768 22.4840583 -32.88918836 12.96789025 -26.55859375 5.05859375 C-19.50937696 -1.55872354 -9.14021232 -3.36303995 0 0 Z " fill="#000000" transform="translate(116.55859375,320.94140625)"/>
</svg>
