<?xml version="1.0" ?><svg id="Layer_5" style="enable-background:new 0 0 64 64;" version="1.1" viewBox="0 0 64 64" xml:space="preserve" xmlns="http://www.w3.org/2000/svg" xmlns:xlink="http://www.w3.org/1999/xlink"><g><path d="M11,38.279v9.064c0,4.438,2.621,8.471,6.677,10.273L21,59.095l3.323-1.478C28.379,55.814,31,51.782,31,47.344v-9.064   l-10-3.333L11,38.279z M29,47.344c0,3.649-2.154,6.964-5.489,8.445L21,56.905l-2.511-1.116C15.154,54.308,13,50.993,13,47.344   v-7.623l8-2.667l8,2.667V47.344z"/><path d="M16,44c0,1.563,0.754,3.04,2,3.979V53h6v-5.021c1.246-0.939,2-2.416,2-3.979c0-2.757-2.243-5-5-5S16,41.243,16,44z M24,44   c0,1.068-0.562,2.033-1.503,2.581L22,46.87V51h-2v-4.13l-0.497-0.289C18.562,46.033,18,45.068,18,44c0-1.654,1.346-3,3-3   S24,42.346,24,44z"/><path d="M46,1c-9.374,0-17,7.626-17,17v13H6c-2.757,0-5,2.243-5,5v22c0,2.757,2.243,5,5,5h30c2.757,0,5-2.243,5-5V36   c0-2.414-1.721-4.434-4-4.899V18c0-4.962,4.037-9,9-9s9,4.038,9,9v5c0,2.206,1.794,4,4,4s4-1.794,4-4v-5C63,8.626,55.374,1,46,1z    M39,36v22c0,1.654-1.346,3-3,3H6c-1.654,0-3-1.346-3-3V36c0-1.654,1.346-3,3-3h30C37.654,33,39,34.346,39,36z M61,23   c0,1.103-0.897,2-2,2s-2-0.897-2-2v-5c0-6.065-4.935-11-11-11s-11,4.935-11,11v13h-4V18c0-8.271,6.729-15,15-15s15,6.729,15,15V23z   "/><rect height="8" width="2" x="50" y="32"/><rect height="8" width="2" x="53" y="42"/><rect height="8" width="2" x="57" y="42"/><rect height="8" width="2" x="58" y="52"/><rect height="8" width="2" x="46" y="52"/><rect height="8" width="2" x="46" y="32"/><path d="M58,32h-2c-1.103,0-2,0.897-2,2v4c0,1.103,0.897,2,2,2h2c1.103,0,2-0.897,2-2v-4C60,32.897,59.103,32,58,32z M56,38v-4h2   l0.002,4H56z"/><path d="M51,48v-4c0-1.103-0.897-2-2-2h-2c-1.103,0-2,0.897-2,2v4c0,1.103,0.897,2,2,2h2C50.103,50,51,49.103,51,48z M47,48v-4h2   l0.002,4H47z"/><path d="M54,52h-2c-1.103,0-2,0.897-2,2v4c0,1.103,0.897,2,2,2h2c1.103,0,2-0.897,2-2v-4C56,52.897,55.103,52,54,52z M52,58v-4h2   l0.002,4H52z"/><rect height="8" width="2" x="15" y="5"/><rect height="8" width="2" x="19" y="5"/><rect height="8" width="2" x="3" y="5"/><path d="M9,13h2c1.103,0,2-0.897,2-2V7c0-1.103-0.897-2-2-2H9C7.897,5,7,5.897,7,7v4C7,12.103,7.897,13,9,13z M9,7h2l0.001,4H9V7z"/><path d="M25,13h2c1.103,0,2-0.897,2-2V7c0-1.103-0.897-2-2-2h-2c-1.103,0-2,0.897-2,2v4C23,12.103,23.897,13,25,13z M25,7h2   l0.001,4H25V7z"/><rect height="8" width="2" x="3" y="15"/><rect height="8" width="2" x="7" y="15"/><path d="M11,17v4c0,1.103,0.897,2,2,2h2c1.103,0,2-0.897,2-2v-4c0-1.103-0.897-2-2-2h-2C11.897,15,11,15.897,11,17z M15.001,21H13   v-4h2L15.001,21z"/><path d="M21,23h2c1.103,0,2-0.897,2-2v-4c0-1.103-0.897-2-2-2h-2c-1.103,0-2,0.897-2,2v4C19,22.103,19.897,23,21,23z M21,17h2   l0.001,4H21V17z"/><path d="M7,47H5v10c0,1.103,0.897,2,2,2h4v-2H7V47z"/><rect height="2" width="2" x="5" y="43"/><rect height="2" width="2" x="35" y="35"/><rect height="2" width="2" x="35" y="39"/><rect height="2" width="2" x="35" y="43"/><circle cx="36" cy="58" r="1"/><circle cx="6" cy="36" r="1"/></g></svg>