<?xml version="1.0" ?><svg id="Layer_5" style="enable-background:new 0 0 64 64;" version="1.1" viewBox="0 0 64 64" xml:space="preserve" xmlns="http://www.w3.org/2000/svg" xmlns:xlink="http://www.w3.org/1999/xlink"><g><path d="M35,57v-6h-8v6H35z M29,53h4v2h-4V53z"/><path d="M55,39v-2c0-1.103-0.897-2-2-2v-1c0-2.414-1.721-4.434-4-4.899V19c0-9.925-8.075-18-18-18S13,9.075,13,19v10.101   C10.721,29.566,9,31.586,9,34v24c0,2.757,2.243,5,5,5h34c2.757,0,5-2.243,5-5v-1c1.103,0,2-0.897,2-2v-2c0-1.103-0.897-2-2-2v-2   c1.103,0,2-0.897,2-2v-2c0-1.103-0.897-2-2-2v-2C54.103,41,55,40.103,55,39z M43,39v-2h2v2H43z M47,37h2v2h-2V37z M53.001,39H51v-2   h2L53.001,39z M31,3c8.822,0,16,7.178,16,16v10h-4V19c0-6.617-5.383-12-12-12s-12,5.383-12,12v10h-4V19C15,10.178,22.178,3,31,3z    M37,31v30H25V31H37z M21,29V19c0-5.514,4.486-10,10-10s10,4.486,10,10v10H21z M11,58V34c0-1.654,1.346-3,3-3h9v30h-9   C12.346,61,11,59.654,11,58z M43,55v-2h2v2H43z M47,53h2v2h-2V53z M53.001,55H51v-2h2L53.001,55z M43,47v-2h2v2H43z M47,45h2v2h-2   V45z M53.001,47H51v-2h2L53.001,47z M51,43h-8c-1.103,0-2,0.897-2,2v2c0,1.103,0.897,2,2,2h8v2h-8c-1.103,0-2,0.897-2,2v2   c0,1.103,0.897,2,2,2h8v1c0,1.654-1.346,3-3,3h-9V31h9c1.654,0,3,1.346,3,3v1h-8c-1.103,0-2,0.897-2,2v2c0,1.103,0.897,2,2,2h8V43z   "/><path d="M17,49c-2.206,0-4,1.794-4,4s1.794,4,4,4s4-1.794,4-4S19.206,49,17,49z M17,55c-1.103,0-2-0.897-2-2s0.897-2,2-2   s2,0.897,2,2S18.103,55,17,55z"/></g></svg>