<svg viewBox="0 0 64 64" xml:space="preserve" xmlns="http://www.w3.org/2000/svg" enable-background="new 0 0 64 64"><path d="M35 57v-6h-8v6h8zm-6-4h4v2h-4v-2z" fill="#ffffff" class="fill-000000"></path><path d="M55 39v-2c0-1.103-.897-2-2-2v-1a5.01 5.01 0 0 0-4-4.899V19c0-9.925-8.075-18-18-18S13 9.075 13 19v10.101A5.01 5.01 0 0 0 9 34v24c0 2.757 2.243 5 5 5h34c2.757 0 5-2.243 5-5v-1c1.103 0 2-.897 2-2v-2c0-1.103-.897-2-2-2v-2c1.103 0 2-.897 2-2v-2c0-1.103-.897-2-2-2v-2c1.103 0 2-.897 2-2zm-12 0v-2h2v2h-2zm4-2h2v2h-2v-2zm6.001 2H51v-2h2l.001 2zM31 3c8.822 0 16 7.178 16 16v10h-4V19c0-6.617-5.383-12-12-12s-12 5.383-12 12v10h-4V19c0-8.822 7.178-16 16-16zm6 28v30H25V31h12zm-16-2V19c0-5.514 4.486-10 10-10s10 4.486 10 10v10H21zM11 58V34c0-1.654 1.346-3 3-3h9v30h-9c-1.654 0-3-1.346-3-3zm32-3v-2h2v2h-2zm4-2h2v2h-2v-2zm6.001 2H51v-2h2l.001 2zM43 47v-2h2v2h-2zm4-2h2v2h-2v-2zm6.001 2H51v-2h2l.001 2zM51 43h-8c-1.103 0-2 .897-2 2v2c0 1.103.897 2 2 2h8v2h-8c-1.103 0-2 .897-2 2v2c0 1.103.897 2 2 2h8v1c0 1.654-1.346 3-3 3h-9V31h9c1.654 0 3 1.346 3 3v1h-8c-1.103 0-2 .897-2 2v2c0 1.103.897 2 2 2h8v2z" fill="#ffffff" class="fill-000000"></path><path d="M17 49c-2.206 0-4 1.794-4 4s1.794 4 4 4 4-1.794 4-4-1.794-4-4-4zm0 6c-1.103 0-2-.897-2-2s.897-2 2-2 2 .897 2 2-.897 2-2 2z" fill="#ffffff" class="fill-000000"></path></svg>