<svg viewBox="0 0 64 64" xml:space="preserve" xmlns="http://www.w3.org/2000/svg" enable-background="new 0 0 64 64"><path d="M11 38.279v9.064c0 4.438 2.621 8.471 6.677 10.273L21 59.095l3.323-1.478A11.252 11.252 0 0 0 31 47.344V38.28l-10-3.333-10 3.332zm18 9.065a9.247 9.247 0 0 1-5.489 8.445L21 56.905l-2.511-1.116A9.247 9.247 0 0 1 13 47.344v-7.623l8-2.667 8 2.667v7.623z" fill="#ffffff" class="fill-000000"></path><path d="M16 44c0 1.563.754 3.04 2 3.979V53h6v-5.021A5.005 5.005 0 0 0 26 44c0-2.757-2.243-5-5-5s-5 2.243-5 5zm8 0c0 1.068-.562 2.033-1.503 2.581L22 46.87V51h-2v-4.13l-.497-.289C18.562 46.033 18 45.068 18 44c0-1.654 1.346-3 3-3s3 1.346 3 3z" fill="#ffffff" class="fill-000000"></path><path d="M46 1c-9.374 0-17 7.626-17 17v13H6c-2.757 0-5 2.243-5 5v22c0 2.757 2.243 5 5 5h30c2.757 0 5-2.243 5-5V36a5.01 5.01 0 0 0-4-4.899V18c0-4.962 4.037-9 9-9s9 4.038 9 9v5c0 2.206 1.794 4 4 4s4-1.794 4-4v-5c0-9.374-7.626-17-17-17zm-7 35v22c0 1.654-1.346 3-3 3H6c-1.654 0-3-1.346-3-3V36c0-1.654 1.346-3 3-3h30c1.654 0 3 1.346 3 3zm22-13c0 1.103-.897 2-2 2s-2-.897-2-2v-5c0-6.065-4.935-11-11-11s-11 4.935-11 11v13h-4V18c0-8.271 6.729-15 15-15s15 6.729 15 15v5z" fill="#ffffff" class="fill-000000"></path><path d="M50 32h2v8h-2zM53 42h2v8h-2zM57 42h2v8h-2zM58 52h2v8h-2zM46 52h2v8h-2zM46 32h2v8h-2zM58 32h-2c-1.103 0-2 .897-2 2v4c0 1.103.897 2 2 2h2c1.103 0 2-.897 2-2v-4c0-1.103-.897-2-2-2zm-2 6v-4h2l.002 4H56zM51 48v-4c0-1.103-.897-2-2-2h-2c-1.103 0-2 .897-2 2v4c0 1.103.897 2 2 2h2c1.103 0 2-.897 2-2zm-4 0v-4h2l.002 4H47zM54 52h-2c-1.103 0-2 .897-2 2v4c0 1.103.897 2 2 2h2c1.103 0 2-.897 2-2v-4c0-1.103-.897-2-2-2zm-2 6v-4h2l.002 4H52zM15 5h2v8h-2zM19 5h2v8h-2zM3 5h2v8H3zM9 13h2c1.103 0 2-.897 2-2V7c0-1.103-.897-2-2-2H9c-1.103 0-2 .897-2 2v4c0 1.103.897 2 2 2zm0-6h2l.001 4H9V7zM25 13h2c1.103 0 2-.897 2-2V7c0-1.103-.897-2-2-2h-2c-1.103 0-2 .897-2 2v4c0 1.103.897 2 2 2zm0-6h2l.001 4H25V7zM3 15h2v8H3zM7 15h2v8H7zM11 17v4c0 1.103.897 2 2 2h2c1.103 0 2-.897 2-2v-4c0-1.103-.897-2-2-2h-2c-1.103 0-2 .897-2 2zm4.001 4H13v-4h2l.001 4zM21 23h2c1.103 0 2-.897 2-2v-4c0-1.103-.897-2-2-2h-2c-1.103 0-2 .897-2 2v4c0 1.103.897 2 2 2zm0-6h2l.001 4H21v-4zM7 47H5v10c0 1.103.897 2 2 2h4v-2H7V47zM5 43h2v2H5zM35 35h2v2h-2zM35 39h2v2h-2zM35 43h2v2h-2z" fill="#ffffff" class="fill-000000"></path><circle cx="36" cy="58" r="1" fill="#ffffff" class="fill-000000"></circle><circle cx="6" cy="36" r="1" fill="#ffffff" class="fill-000000"></circle></svg>