<?xml version="1.0" encoding="UTF-8"?>
<svg version="1.1" xmlns="http://www.w3.org/2000/svg" width="512" height="512">
<path d="M0 0 C2.43079897 0.00315247 4.86036642 -0.02037594 7.29101562 -0.0456543 C21.35507333 -0.10255894 35.14142513 1.62102496 48.69726562 5.50317383 C49.42526367 5.70966553 50.15326172 5.91615723 50.90332031 6.12890625 C69.43468596 11.6513803 86.69118877 21.21893841 101.69726562 33.31567383 C102.53257812 33.98856445 102.53257812 33.98856445 103.38476562 34.67504883 C135.47311302 60.74683108 157.99316928 97.71403593 162.5255127 139.25595093 C163.04696491 145.50939343 162.95081037 151.80015029 162.90307617 158.07006836 C162.88448545 160.60385926 162.88256947 163.13728967 162.8828125 165.67114258 C162.87790757 167.28703117 162.87208379 168.9029173 162.86523438 170.51879883 C162.86412155 171.27388733 162.86300873 172.02897583 162.86186218 172.8069458 C162.8134571 178.08329088 162.8134571 178.08329088 161.69726562 180.31567383 C162.25124023 180.41871826 162.80521484 180.5217627 163.37597656 180.62792969 C168.94498163 181.75128363 173.83740044 183.41341533 178.94726562 185.87817383 C179.68106445 186.23041016 180.41486328 186.58264648 181.17089844 186.94555664 C207.48263132 199.93547261 228.08091094 223.59996585 237.69726562 251.31567383 C244.52467302 273.54511261 246.03097276 299.9548917 238.69726562 322.31567383 C238.48827637 322.98904785 238.27928711 323.66242188 238.06396484 324.35620117 C228.73225548 353.91709921 206.76265481 376.21936902 179.82226562 390.56567383 C165.7388066 397.33475961 150.72649137 400.63057323 135.14491272 400.58309937 C134.03481557 400.58763048 132.92471842 400.59216159 131.78098196 400.59683001 C128.08905217 400.60941412 124.39727103 400.60785748 120.70532227 400.60620117 C118.04652365 400.6121903 115.38773635 400.61894105 112.72894287 400.6265564 C106.27138196 400.64310672 99.81385759 400.6486633 93.35627723 400.64978115 C88.09974576 400.65073481 82.84322623 400.65486091 77.58669853 400.6611824 C62.6458501 400.67878134 47.7050303 400.68802381 32.76417143 400.68652146 C31.96019554 400.68644154 31.15621965 400.68636163 30.32788086 400.6862793 C29.52290975 400.68619754 28.71793864 400.68611577 27.88857447 400.68603154 C14.86298468 400.68521982 1.83751085 400.70433204 -11.18804543 400.73255603 C-24.59948563 400.761384 -38.01086948 400.77509078 -51.42234141 400.77336848 C-58.93689886 400.77270781 -66.45133486 400.77805651 -73.96586418 400.79972458 C-80.3678649 400.81806783 -86.76968918 400.82217756 -93.171705 400.80870573 C-96.42900351 400.80224042 -99.6858999 400.8040576 -102.94317818 400.81941223 C-140.22592466 400.98363983 -170.90483487 391.27602922 -198.30273438 365.31567383 C-199.19992188 364.48293945 -200.09710938 363.65020508 -201.02148438 362.79223633 C-222.44324393 342.273079 -236.7417629 312.99025667 -237.56587219 283.12036133 C-237.63051841 279.31003413 -237.63320564 275.50141932 -237.61523438 271.69067383 C-237.61341156 270.89164642 -237.61158875 270.09261902 -237.60971069 269.26937866 C-237.56516759 257.69063804 -237.16981628 246.58746762 -234.30273438 235.31567383 C-234.05330078 234.2737085 -234.05330078 234.2737085 -233.79882812 233.21069336 C-226.70749177 203.9983272 -208.8353201 180.3606851 -183.28320312 164.60083008 C-178.69147079 161.88833955 -173.92588164 159.54916457 -169.11523438 157.25317383 C-168.28894531 156.8587207 -167.46265625 156.46426758 -166.61132812 156.05786133 C-160.69449345 153.31567383 -160.69449345 153.31567383 -157.30273438 153.31567383 C-157.33753906 152.65825195 -157.37234375 152.00083008 -157.40820312 151.32348633 C-158.32889224 118.96784029 -144.31764431 86.14429628 -124.30273438 61.31567383 C-123.85414063 60.75879883 -123.40554687 60.20192383 -122.94335938 59.62817383 C-97.03574946 27.74188471 -61.22400847 6.27818392 -20.2668457 0.70825195 C-13.51478658 0.03957479 -6.78075914 -0.01829341 0 0 Z M-80.30273438 63.31567383 C-81.08390625 63.97438477 -81.86507812 64.6330957 -82.66992188 65.31176758 C-100.65554285 80.84480388 -113.64315998 101.54040338 -120.30273438 124.31567383 C-120.49883301 124.98356934 -120.69493164 125.65146484 -120.89697266 126.33959961 C-125.56171109 143.02662384 -124.70425767 160.16136315 -124.30273438 177.31567383 C-125.05006836 177.49090576 -125.79740234 177.6661377 -126.56738281 177.84667969 C-153.22815324 184.27630853 -177.41433661 195.96648283 -192.33032227 219.87548828 C-196.2972577 226.65796896 -199.0186615 233.81820462 -201.30273438 241.31567383 C-201.64304688 242.40235352 -201.98335937 243.4890332 -202.33398438 244.60864258 C-208.72529576 269.84840468 -205.37995136 298.63943425 -192.23291016 321.1472168 C-178.40060839 343.37228737 -157.18771248 359.3911031 -131.74023438 365.62817383 C-131.0926416 365.78785645 -130.44504883 365.94753906 -129.77783203 366.11206055 C-115.79639405 369.23399526 -101.11012081 368.46455576 -86.88183594 368.4609375 C-84.52329455 368.46393382 -82.16475365 368.46733743 -79.80621338 368.47111511 C-73.43000941 368.47991062 -67.05381889 368.48229133 -60.67760944 368.4829309 C-56.68615169 368.48364387 -52.6946962 368.48571962 -48.70323944 368.48842812 C-35.47447806 368.49722032 -22.24572474 368.50184966 -9.01696041 368.50109764 C-8.30592402 368.50105769 -7.59488763 368.50101773 -6.86230469 368.50097656 C-6.15038671 368.50093568 -5.43846873 368.5008948 -4.70497748 368.50085268 C6.82547521 368.50044646 18.3558952 368.51001375 29.88633844 368.52411493 C41.76439475 368.53852507 53.64243516 368.54538259 65.52050042 368.54452115 C72.17360858 368.54419082 78.82668723 368.54706434 85.47978973 368.5576992 C91.74091618 368.56743532 98.00197057 368.5674218 104.26309967 368.56018257 C106.54902757 368.5591436 108.83496009 368.56145832 111.12088013 368.56754303 C140.14261476 368.63973538 165.12372382 365.58667164 187.171875 344.83666992 C202.97382209 329.08024701 210.02782328 309.33134613 210.13476562 287.31567383 C209.94399617 265.65052748 205.31505231 246.18845479 189.94726562 230.06567383 C171.96150616 212.99810629 146.76907566 208.22404402 122.69726562 207.31567383 C122.95121094 206.41848633 123.20515625 205.52129883 123.46679688 204.59692383 C124.40170587 201.20744102 125.29790033 197.81286457 126.16259766 194.4050293 C126.6348528 192.55956831 127.13105538 190.72027135 127.63085938 188.88208008 C134.96432857 157.40781277 129.23501541 121.9178722 112.69726562 94.31567383 C104.65800168 82.13531327 95.15022327 70.41835026 83.69726562 61.31567383 C83.18454102 60.90704102 82.67181641 60.4984082 82.14355469 60.07739258 C34.08559766 22.19866211 -33.9230535 23.77503064 -80.30273438 63.31567383 Z " fill="#000000" transform="translate(253.302734375,47.684326171875)"/>
<path d="M0 0 C1.00804687 -0.02835937 2.01609375 -0.05671875 3.0546875 -0.0859375 C8.91542376 0.79391858 12.98294687 4.98079234 17.07299805 9.0324707 C18.00383713 9.95055008 18.93467621 10.86862946 19.89372253 11.81452942 C20.89179202 12.80954154 21.88944749 13.80496909 22.88671875 14.80078125 C23.92456472 15.83219075 24.9625565 16.86345355 26.00068665 17.89457703 C28.16848815 20.05044607 30.33215974 22.21036536 32.4934082 24.37280273 C35.25380604 27.13340404 38.02772355 29.87997256 40.80536175 32.62321186 C42.95101483 34.74655921 45.08744669 36.87900474 47.22144508 39.01405907 C48.24003361 40.03029898 49.26184045 41.04332435 50.28699303 42.05294228 C61.71722463 53.32599952 61.71722463 53.32599952 62.33984375 61.03515625 C61.59112557 67.52053206 60.13634484 71.80649999 55 76.1875 C49.24357474 78.56515391 44.35523514 79.28292202 38.51293945 76.90454102 C33.130851 74.13647924 29.27001045 69.95678735 25.125 65.625 C24.35027344 64.83222656 23.57554687 64.03945312 22.77734375 63.22265625 C20.88372903 61.28228561 19.00015713 59.3331852 17.125 57.375 C17.12353344 58.01368578 17.12206688 58.65237156 17.12055588 59.31041145 C17.08348461 74.85977511 17.02446591 90.40887775 16.94109726 105.9580555 C16.90130835 113.47757443 16.86891517 120.99698874 16.85400391 128.51660156 C16.84098654 135.07163755 16.81401999 141.62644331 16.77038693 148.18134964 C16.74777365 151.6513441 16.73208921 155.12105462 16.73311615 158.5911293 C16.7340017 162.46740274 16.70374099 166.3430967 16.67089844 170.21923828 C16.67844398 171.94014427 16.67844398 171.94014427 16.68614197 173.69581604 C16.60465944 179.90397056 16.3078872 183.66668038 12.125 188.375 C8.30569828 192.00333663 5.24220994 192.68500458 0.125 192.875 C-4.99220994 192.68500458 -8.05569828 192.00333663 -11.875 188.375 C-16.83160043 182.79577734 -16.45259914 177.44918787 -16.42089844 170.21923828 C-16.43123611 168.9991658 -16.44157379 167.77909332 -16.45222473 166.52204895 C-16.47660843 163.18959714 -16.48349106 159.85798184 -16.48250484 156.52549982 C-16.48564016 153.03806451 -16.51127115 149.55079509 -16.53448486 146.06344604 C-16.57500128 139.46565332 -16.59537524 132.86795932 -16.60845876 126.27006137 C-16.62434365 118.75607112 -16.66276547 111.24224852 -16.70305204 103.72835565 C-16.78539124 88.27728697 -16.83952059 72.82625164 -16.875 57.375 C-17.38361572 57.90456299 -17.89223145 58.43412598 -18.41625977 58.97973633 C-20.74591571 61.39298161 -23.09142174 63.79022128 -25.4375 66.1875 C-26.23736328 67.02087891 -27.03722656 67.85425781 -27.86132812 68.71289062 C-32.90343511 73.83731772 -37.07367397 77.98722771 -44.53515625 78.58984375 C-51.02053206 77.84112557 -55.30649999 76.38634484 -59.6875 71.25 C-62.02609835 65.58813031 -62.76970869 60.68507258 -60.52954102 54.90112305 C-57.30830263 48.67050061 -52.06549202 44.03135229 -47.125 39.1640625 C-46.06339676 38.10484779 -45.00253654 37.04488792 -43.94238281 35.98422241 C-41.72943916 33.77439144 -39.50998882 31.57139484 -37.28515625 29.37353516 C-34.43687527 26.55935676 -31.60206323 23.73206622 -28.77154541 20.90003395 C-26.58623855 18.71527116 -24.39575704 16.53576063 -22.20349121 14.35798264 C-21.15614091 13.31698288 -20.10998538 12.2747796 -19.06506348 11.23134232 C-17.6056179 9.7762412 -16.13977139 8.32791689 -14.671875 6.88134766 C-13.84010742 6.05720367 -13.00833984 5.23305969 -12.15136719 4.38394165 C-8.17047817 0.87072383 -5.28115341 0.06719025 0 0 Z " fill="#000000" transform="translate(255.875,127.625)"/>
<path d="M0 0 C5.4521357 2.53134872 6.4759981 4.71399714 10 10 C10 17.26 10 24.52 10 32 C52.24 32 94.48 32 138 32 C138 24.74 138 17.48 138 10 C143.17241379 2.24137931 143.17241379 2.24137931 148 0 C153.5997712 -0.75381535 158.33499991 -0.77303575 163.5 1.625 C167.29870715 5.23377179 169.74862246 8.27498091 170.51757812 13.55175781 C170.5243457 15.48293457 170.5243457 15.48293457 170.53125 17.453125 C170.5350769 18.15338806 170.53890381 18.85365112 170.54284668 19.57513428 C170.54555582 21.05091801 170.53826459 22.52675059 170.52148438 24.00244141 C170.50018528 26.23061706 170.52124798 28.45552149 170.546875 30.68359375 C170.56673679 40.51153911 169.66549696 49.21186447 162.9375 56.875 C154.43419784 64.29562842 144.1169969 64.58648012 133.33984375 64.51757812 C131.89795224 64.52301082 130.4560663 64.53013986 129.01419067 64.53881836 C125.12978905 64.55691871 121.24581652 64.55003985 117.36140823 64.53730202 C113.27730487 64.52710482 109.19323582 64.53658621 105.10913086 64.54284668 C98.25335156 64.55010367 91.39774518 64.54058681 84.54199219 64.52148438 C76.63987462 64.49971931 68.73817001 64.50677207 60.83606243 64.52879 C54.0254983 64.54699981 47.21505776 64.54947517 40.40447712 64.53903532 C36.34818577 64.53283092 32.29208789 64.53187984 28.23580933 64.54518127 C24.42046865 64.55682093 20.60565525 64.54856804 16.79037094 64.52560425 C15.3985163 64.52036008 14.0066165 64.52175643 12.61478043 64.53065491 C2.49269932 64.58935323 -7.02634296 63.77887754 -14.9375 56.875 C-22.20709466 48.59498895 -22.64246035 38.99400429 -22.52148438 28.47607422 C-22.49989842 26.23947448 -22.52144348 24.006038 -22.546875 21.76953125 C-22.54423374 20.33072216 -22.53911292 18.89191503 -22.53125 17.453125 C-22.52673828 16.16567383 -22.52222656 14.87822266 -22.51757812 13.55175781 C-21.74862246 8.27498091 -19.29870715 5.23377179 -15.5 1.625 C-10.33499991 -0.77303575 -5.5997712 -0.75381535 0 0 Z " fill="#000000" transform="translate(182,320)"/>
</svg>
